<?xml version="1.0" standalone="no"?>
<!DOCTYPE svg PUBLIC "-//W3C//DTD SVG 20010904//EN"
 "http://www.w3.org/TR/2001/REC-SVG-20010904/DTD/svg10.dtd">
<svg version="1.0" xmlns="http://www.w3.org/2000/svg"
 width="700.000000pt" height="700.000000pt" viewBox="0 0 700.000000 700.000000"
 preserveAspectRatio="xMidYMid meet">
<metadata>
Created by potrace 1.14, written by Peter Selinger 2001-2017
</metadata>
<g transform="translate(0.000000,700.000000) scale(0.100000,-0.100000)"
fill="#000000" stroke="none">
<path d="M3637 6124 c-1 -1 -43 -4 -93 -8 -259 -18 -508 -86 -784 -214 -110
-51 -315 -181 -409 -258 -160 -131 -297 -276 -408 -429 -44 -61 -173 -269
-173 -279 0 -2 -18 -42 -39 -88 -74 -158 -104 -254 -99 -318 13 -177 222 -263
354 -147 41 35 55 60 90 158 146 405 474 772 858 961 98 48 251 106 339 127
175 43 247 53 412 54 190 2 291 -9 450 -46 344 -81 684 -292 922 -573 207
-243 360 -592 398 -909 8 -69 31 -118 72 -157 42 -40 88 -55 183 -62 132 -9
169 -16 257 -46 353 -119 596 -457 594 -826 -2 -449 -332 -820 -776 -870 -16
-2 -892 -4 -1945 -5 -1777 -1 -1918 -2 -1952 -18 -179 -82 -183 -321 -7 -401
44 -19 64 -20 1984 -19 1209 0 1963 4 2000 10 90 15 95 16 164 34 362 94 687
368 850 716 137 292 158 651 55 966 -27 82 -107 249 -145 304 -130 185 -296
339 -461 428 -31 16 -65 35 -75 40 -59 32 -230 86 -342 107 l-45 9 -27 105
c-138 540 -456 986 -919 1293 -300 198 -679 329 -1025 353 -85 6 -254 11 -258
8z"/>
<path d="M150 3924 c-77 -22 -136 -95 -146 -178 -11 -85 26 -162 105 -216 l36
-25 1144 -3 c1266 -3 1205 -5 1268 61 100 105 85 252 -32 337 l-49 35 -1141 1
c-917 1 -1149 -1 -1185 -12z"/>
<path d="M1068 3059 c-113 -17 -189 -100 -190 -209 -1 -68 20 -120 67 -165 70
-65 -75 -61 2115 -60 1097 1 2012 5 2033 9 51 11 131 89 146 142 37 133 -36
256 -167 280 -46 9 -3944 11 -4004 3z"/>
<path d="M239 1309 c-75 -4 -103 -10 -133 -28 -146 -91 -137 -302 17 -383 l42
-22 2005 -1 c1532 -1 2015 1 2046 10 159 46 209 241 93 364 -12 13 -42 32 -67
43 -44 20 -72 20 -1976 22 -1062 0 -1974 -2 -2027 -5z"/>
</g>
</svg>
